<mxfile host="app.diagrams.net" agent="Mozilla/5.0 (X11; Linux x86_64) AppleWebKit/537.36 (KHTML, like Gecko) Chrome/127.0.0.0 Safari/537.36" version="24.7.7">
  <diagram id="C5RBs43oDa-KdzZeNtuy" name="Page-1">
    <mxGraphModel dx="1285" dy="667" grid="1" gridSize="10" guides="1" tooltips="1" connect="1" arrows="1" fold="1" page="1" pageScale="1" pageWidth="827" pageHeight="1169" math="0" shadow="0">
      <root>
        <mxCell id="WIyWlLk6GJQsqaUBKTNV-0" />
        <mxCell id="WIyWlLk6GJQsqaUBKTNV-1" parent="WIyWlLk6GJQsqaUBKTNV-0" />
        <mxCell id="hVYWCZTe8094WA2w8YMd-0" value="&lt;font style=&quot;font-size: 30px;&quot;&gt;A1&lt;/font&gt;" style="ellipse;whiteSpace=wrap;html=1;aspect=fixed;fillColor=#D7E884;strokeColor=#613E20;strokeWidth=2;" vertex="1" parent="WIyWlLk6GJQsqaUBKTNV-1">
          <mxGeometry x="170" y="740" width="80" height="80" as="geometry" />
        </mxCell>
        <mxCell id="hVYWCZTe8094WA2w8YMd-2" value="&lt;font style=&quot;font-size: 30px;&quot;&gt;T4&lt;/font&gt;" style="ellipse;whiteSpace=wrap;html=1;aspect=fixed;fillColor=#D7E884;strokeColor=#613E20;strokeWidth=2;" vertex="1" parent="WIyWlLk6GJQsqaUBKTNV-1">
          <mxGeometry x="90" y="830" width="80" height="80" as="geometry" />
        </mxCell>
        <mxCell id="hVYWCZTe8094WA2w8YMd-3" value="&lt;font style=&quot;font-size: 30px;&quot;&gt;T2&lt;/font&gt;" style="ellipse;whiteSpace=wrap;html=1;aspect=fixed;fillColor=#D7E884;strokeColor=#613E20;strokeWidth=2;" vertex="1" parent="WIyWlLk6GJQsqaUBKTNV-1">
          <mxGeometry x="281" y="700" width="80" height="80" as="geometry" />
        </mxCell>
        <mxCell id="hVYWCZTe8094WA2w8YMd-4" value="&lt;font style=&quot;font-size: 30px;&quot;&gt;T1&lt;/font&gt;" style="ellipse;whiteSpace=wrap;html=1;aspect=fixed;fillColor=#D7E884;strokeColor=#613E20;strokeWidth=2;" vertex="1" parent="WIyWlLk6GJQsqaUBKTNV-1">
          <mxGeometry x="170" y="620" width="80" height="80" as="geometry" />
        </mxCell>
        <mxCell id="hVYWCZTe8094WA2w8YMd-5" value="&lt;font style=&quot;font-size: 30px;&quot;&gt;T5&lt;/font&gt;" style="ellipse;whiteSpace=wrap;html=1;aspect=fixed;fillColor=#D7E884;strokeColor=#613E20;strokeWidth=2;" vertex="1" parent="WIyWlLk6GJQsqaUBKTNV-1">
          <mxGeometry x="60" y="700" width="80" height="80" as="geometry" />
        </mxCell>
        <mxCell id="hVYWCZTe8094WA2w8YMd-6" value="&lt;font style=&quot;font-size: 30px;&quot;&gt;T3&lt;/font&gt;" style="ellipse;whiteSpace=wrap;html=1;aspect=fixed;fillColor=#D7E884;strokeColor=#613E20;strokeWidth=2;" vertex="1" parent="WIyWlLk6GJQsqaUBKTNV-1">
          <mxGeometry x="250" y="830" width="80" height="80" as="geometry" />
        </mxCell>
        <mxCell id="hVYWCZTe8094WA2w8YMd-10" value="" style="endArrow=classic;html=1;rounded=0;fontFamily=Helvetica;fontSize=12;fontColor=default;entryX=1;entryY=1;entryDx=0;entryDy=0;strokeColor=#613E20;strokeWidth=2;startArrow=classic;startFill=1;" edge="1" parent="WIyWlLk6GJQsqaUBKTNV-1" source="hVYWCZTe8094WA2w8YMd-6" target="hVYWCZTe8094WA2w8YMd-0">
          <mxGeometry width="50" height="50" relative="1" as="geometry">
            <mxPoint x="300" y="780" as="sourcePoint" />
            <mxPoint x="350" y="730" as="targetPoint" />
          </mxGeometry>
        </mxCell>
        <mxCell id="hVYWCZTe8094WA2w8YMd-11" value="" style="endArrow=classic;html=1;rounded=0;strokeColor=#613E20;strokeWidth=2;align=center;verticalAlign=middle;fontFamily=Helvetica;fontSize=12;fontColor=default;labelBackgroundColor=default;entryX=1;entryY=0;entryDx=0;entryDy=0;startArrow=classic;startFill=1;" edge="1" parent="WIyWlLk6GJQsqaUBKTNV-1" source="hVYWCZTe8094WA2w8YMd-3" target="hVYWCZTe8094WA2w8YMd-0">
          <mxGeometry width="50" height="50" relative="1" as="geometry">
            <mxPoint x="300" y="780" as="sourcePoint" />
            <mxPoint x="350" y="730" as="targetPoint" />
          </mxGeometry>
        </mxCell>
        <mxCell id="hVYWCZTe8094WA2w8YMd-12" value="" style="endArrow=classic;html=1;rounded=0;strokeColor=#613E20;strokeWidth=2;align=center;verticalAlign=middle;fontFamily=Helvetica;fontSize=12;fontColor=default;labelBackgroundColor=default;entryX=0.5;entryY=0;entryDx=0;entryDy=0;exitX=0.5;exitY=1;exitDx=0;exitDy=0;startArrow=classic;startFill=1;" edge="1" parent="WIyWlLk6GJQsqaUBKTNV-1" source="hVYWCZTe8094WA2w8YMd-4" target="hVYWCZTe8094WA2w8YMd-0">
          <mxGeometry width="50" height="50" relative="1" as="geometry">
            <mxPoint x="300" y="780" as="sourcePoint" />
            <mxPoint x="350" y="730" as="targetPoint" />
          </mxGeometry>
        </mxCell>
        <mxCell id="hVYWCZTe8094WA2w8YMd-13" value="" style="endArrow=classic;html=1;rounded=0;strokeColor=#613E20;strokeWidth=2;align=center;verticalAlign=middle;fontFamily=Helvetica;fontSize=12;fontColor=default;labelBackgroundColor=default;exitX=1;exitY=0.5;exitDx=0;exitDy=0;entryX=0;entryY=0;entryDx=0;entryDy=0;startArrow=classic;startFill=1;" edge="1" parent="WIyWlLk6GJQsqaUBKTNV-1" source="hVYWCZTe8094WA2w8YMd-5" target="hVYWCZTe8094WA2w8YMd-0">
          <mxGeometry width="50" height="50" relative="1" as="geometry">
            <mxPoint x="300" y="780" as="sourcePoint" />
            <mxPoint x="350" y="730" as="targetPoint" />
          </mxGeometry>
        </mxCell>
        <mxCell id="hVYWCZTe8094WA2w8YMd-14" value="" style="endArrow=classic;html=1;rounded=0;strokeColor=#613E20;strokeWidth=2;align=center;verticalAlign=middle;fontFamily=Helvetica;fontSize=12;fontColor=default;labelBackgroundColor=default;entryX=0;entryY=1;entryDx=0;entryDy=0;exitX=1;exitY=0;exitDx=0;exitDy=0;startArrow=classic;startFill=1;" edge="1" parent="WIyWlLk6GJQsqaUBKTNV-1" source="hVYWCZTe8094WA2w8YMd-2" target="hVYWCZTe8094WA2w8YMd-0">
          <mxGeometry width="50" height="50" relative="1" as="geometry">
            <mxPoint x="300" y="780" as="sourcePoint" />
            <mxPoint x="350" y="730" as="targetPoint" />
          </mxGeometry>
        </mxCell>
        <mxCell id="hVYWCZTe8094WA2w8YMd-29" style="edgeStyle=none;shape=connector;rounded=0;orthogonalLoop=1;jettySize=auto;html=1;entryX=1;entryY=0;entryDx=0;entryDy=0;strokeColor=#613E20;strokeWidth=2;align=center;verticalAlign=middle;fontFamily=Helvetica;fontSize=12;fontColor=default;labelBackgroundColor=default;endArrow=classic;" edge="1" parent="WIyWlLk6GJQsqaUBKTNV-1" source="hVYWCZTe8094WA2w8YMd-15" target="hVYWCZTe8094WA2w8YMd-20">
          <mxGeometry relative="1" as="geometry" />
        </mxCell>
        <mxCell id="hVYWCZTe8094WA2w8YMd-15" value="&lt;font style=&quot;font-size: 30px;&quot;&gt;A1&lt;/font&gt;" style="ellipse;whiteSpace=wrap;html=1;aspect=fixed;fillColor=#D7E884;strokeColor=#613E20;strokeWidth=2;" vertex="1" parent="WIyWlLk6GJQsqaUBKTNV-1">
          <mxGeometry x="650" y="730" width="80" height="80" as="geometry" />
        </mxCell>
        <mxCell id="hVYWCZTe8094WA2w8YMd-31" style="edgeStyle=none;shape=connector;rounded=0;orthogonalLoop=1;jettySize=auto;html=1;entryX=0.5;entryY=1;entryDx=0;entryDy=0;strokeColor=#613E20;strokeWidth=2;align=center;verticalAlign=middle;fontFamily=Helvetica;fontSize=12;fontColor=default;labelBackgroundColor=default;endArrow=classic;" edge="1" parent="WIyWlLk6GJQsqaUBKTNV-1" source="hVYWCZTe8094WA2w8YMd-16" target="hVYWCZTe8094WA2w8YMd-19">
          <mxGeometry relative="1" as="geometry" />
        </mxCell>
        <mxCell id="hVYWCZTe8094WA2w8YMd-16" value="&lt;font style=&quot;font-size: 30px;&quot;&gt;T4&lt;/font&gt;" style="ellipse;whiteSpace=wrap;html=1;aspect=fixed;fillColor=#D7E884;strokeColor=#613E20;strokeWidth=2;" vertex="1" parent="WIyWlLk6GJQsqaUBKTNV-1">
          <mxGeometry x="480" y="830" width="80" height="80" as="geometry" />
        </mxCell>
        <mxCell id="hVYWCZTe8094WA2w8YMd-30" style="edgeStyle=none;shape=connector;rounded=0;orthogonalLoop=1;jettySize=auto;html=1;entryX=0.5;entryY=0;entryDx=0;entryDy=0;strokeColor=#613E20;strokeWidth=2;align=center;verticalAlign=middle;fontFamily=Helvetica;fontSize=12;fontColor=default;labelBackgroundColor=default;endArrow=classic;" edge="1" parent="WIyWlLk6GJQsqaUBKTNV-1" source="hVYWCZTe8094WA2w8YMd-17" target="hVYWCZTe8094WA2w8YMd-15">
          <mxGeometry relative="1" as="geometry" />
        </mxCell>
        <mxCell id="hVYWCZTe8094WA2w8YMd-17" value="&lt;font style=&quot;font-size: 30px;&quot;&gt;T2&lt;/font&gt;" style="ellipse;whiteSpace=wrap;html=1;aspect=fixed;fillColor=#D7E884;strokeColor=#613E20;strokeWidth=2;" vertex="1" parent="WIyWlLk6GJQsqaUBKTNV-1">
          <mxGeometry x="603" y="620" width="80" height="80" as="geometry" />
        </mxCell>
        <mxCell id="hVYWCZTe8094WA2w8YMd-18" value="&lt;font style=&quot;font-size: 30px;&quot;&gt;T1&lt;/font&gt;" style="ellipse;whiteSpace=wrap;html=1;aspect=fixed;fillColor=#D7E884;strokeColor=#613E20;strokeWidth=2;" vertex="1" parent="WIyWlLk6GJQsqaUBKTNV-1">
          <mxGeometry x="480" y="620" width="80" height="80" as="geometry" />
        </mxCell>
        <mxCell id="hVYWCZTe8094WA2w8YMd-19" value="&lt;span style=&quot;font-size: 30px;&quot;&gt;A2&lt;/span&gt;" style="ellipse;whiteSpace=wrap;html=1;aspect=fixed;fillColor=#D7E884;strokeColor=#613E20;strokeWidth=2;" vertex="1" parent="WIyWlLk6GJQsqaUBKTNV-1">
          <mxGeometry x="435" y="730" width="80" height="80" as="geometry" />
        </mxCell>
        <mxCell id="hVYWCZTe8094WA2w8YMd-28" style="edgeStyle=none;shape=connector;rounded=0;orthogonalLoop=1;jettySize=auto;html=1;entryX=1;entryY=0.5;entryDx=0;entryDy=0;strokeColor=#613E20;strokeWidth=2;align=center;verticalAlign=middle;fontFamily=Helvetica;fontSize=12;fontColor=default;labelBackgroundColor=default;endArrow=classic;" edge="1" parent="WIyWlLk6GJQsqaUBKTNV-1" source="hVYWCZTe8094WA2w8YMd-20" target="hVYWCZTe8094WA2w8YMd-16">
          <mxGeometry relative="1" as="geometry" />
        </mxCell>
        <mxCell id="hVYWCZTe8094WA2w8YMd-20" value="&lt;font style=&quot;font-size: 30px;&quot;&gt;T3&lt;/font&gt;" style="ellipse;whiteSpace=wrap;html=1;aspect=fixed;fillColor=#D7E884;strokeColor=#613E20;strokeWidth=2;" vertex="1" parent="WIyWlLk6GJQsqaUBKTNV-1">
          <mxGeometry x="603" y="830" width="80" height="80" as="geometry" />
        </mxCell>
        <mxCell id="hVYWCZTe8094WA2w8YMd-26" value="" style="endArrow=classic;html=1;rounded=0;strokeColor=#613E20;strokeWidth=2;align=center;verticalAlign=middle;fontFamily=Helvetica;fontSize=12;fontColor=default;labelBackgroundColor=default;exitX=0.5;exitY=0;exitDx=0;exitDy=0;" edge="1" parent="WIyWlLk6GJQsqaUBKTNV-1" source="hVYWCZTe8094WA2w8YMd-19" target="hVYWCZTe8094WA2w8YMd-18">
          <mxGeometry width="50" height="50" relative="1" as="geometry">
            <mxPoint x="390" y="760" as="sourcePoint" />
            <mxPoint x="440" y="710" as="targetPoint" />
          </mxGeometry>
        </mxCell>
        <mxCell id="hVYWCZTe8094WA2w8YMd-27" value="" style="endArrow=classic;html=1;rounded=0;strokeColor=#613E20;strokeWidth=2;align=center;verticalAlign=middle;fontFamily=Helvetica;fontSize=12;fontColor=default;labelBackgroundColor=default;entryX=0;entryY=0.5;entryDx=0;entryDy=0;exitX=1;exitY=0.5;exitDx=0;exitDy=0;" edge="1" parent="WIyWlLk6GJQsqaUBKTNV-1" source="hVYWCZTe8094WA2w8YMd-18" target="hVYWCZTe8094WA2w8YMd-17">
          <mxGeometry width="50" height="50" relative="1" as="geometry">
            <mxPoint x="390" y="760" as="sourcePoint" />
            <mxPoint x="440" y="710" as="targetPoint" />
          </mxGeometry>
        </mxCell>
        <mxCell id="hVYWCZTe8094WA2w8YMd-58" value="&lt;font style=&quot;font-size: 30px;&quot;&gt;A1&lt;/font&gt;" style="ellipse;whiteSpace=wrap;html=1;aspect=fixed;fillColor=#D7E884;strokeColor=#613E20;strokeWidth=2;fontSize=20;" vertex="1" parent="WIyWlLk6GJQsqaUBKTNV-1">
          <mxGeometry x="978.52" y="620" width="80" height="80" as="geometry" />
        </mxCell>
        <mxCell id="hVYWCZTe8094WA2w8YMd-59" style="edgeStyle=none;shape=connector;rounded=0;orthogonalLoop=1;jettySize=auto;html=1;entryX=0;entryY=1;entryDx=0;entryDy=0;strokeColor=#613E20;strokeWidth=2;align=center;verticalAlign=middle;fontFamily=Helvetica;fontSize=12;fontColor=default;labelBackgroundColor=default;endArrow=classic;startArrow=classic;startFill=1;" edge="1" parent="WIyWlLk6GJQsqaUBKTNV-1" source="hVYWCZTe8094WA2w8YMd-32" target="hVYWCZTe8094WA2w8YMd-58">
          <mxGeometry relative="1" as="geometry" />
        </mxCell>
        <mxCell id="hVYWCZTe8094WA2w8YMd-32" value="&lt;font style=&quot;font-size: 20px;&quot;&gt;HA1&lt;/font&gt;" style="ellipse;whiteSpace=wrap;html=1;aspect=fixed;fillColor=#D7E884;strokeColor=#613E20;strokeWidth=2;fontSize=20;" vertex="1" parent="WIyWlLk6GJQsqaUBKTNV-1">
          <mxGeometry x="878.3006535947712" y="808.2337931034483" width="47.46" height="47.46" as="geometry" />
        </mxCell>
        <mxCell id="hVYWCZTe8094WA2w8YMd-33" value="&lt;font style=&quot;font-size: 20px;&quot;&gt;T4&lt;/font&gt;" style="ellipse;whiteSpace=wrap;html=1;aspect=fixed;fillColor=#D7E884;strokeColor=#613E20;strokeWidth=2;fontSize=20;" vertex="1" parent="WIyWlLk6GJQsqaUBKTNV-1">
          <mxGeometry x="828.6274509803922" y="862.5441379310345" width="47.46" height="47.46" as="geometry" />
        </mxCell>
        <mxCell id="hVYWCZTe8094WA2w8YMd-34" value="&lt;font style=&quot;font-size: 20px;&quot;&gt;T2&lt;/font&gt;" style="ellipse;whiteSpace=wrap;html=1;aspect=fixed;fillColor=#D7E884;strokeColor=#613E20;strokeWidth=2;fontSize=20;" vertex="1" parent="WIyWlLk6GJQsqaUBKTNV-1">
          <mxGeometry x="947.3267973856209" y="784.0958620689655" width="47.46" height="47.46" as="geometry" />
        </mxCell>
        <mxCell id="hVYWCZTe8094WA2w8YMd-35" value="&lt;font style=&quot;font-size: 20px;&quot;&gt;T1&lt;/font&gt;" style="ellipse;whiteSpace=wrap;html=1;aspect=fixed;fillColor=#D7E884;strokeColor=#613E20;strokeWidth=2;fontSize=20;" vertex="1" parent="WIyWlLk6GJQsqaUBKTNV-1">
          <mxGeometry x="878.3006535947712" y="735.82" width="47.46" height="47.46" as="geometry" />
        </mxCell>
        <mxCell id="hVYWCZTe8094WA2w8YMd-36" value="&lt;font style=&quot;font-size: 20px;&quot;&gt;T5&lt;/font&gt;" style="ellipse;whiteSpace=wrap;html=1;aspect=fixed;fillColor=#D7E884;strokeColor=#613E20;strokeWidth=2;fontSize=20;" vertex="1" parent="WIyWlLk6GJQsqaUBKTNV-1">
          <mxGeometry x="810" y="784.0958620689655" width="47.46" height="47.46" as="geometry" />
        </mxCell>
        <mxCell id="hVYWCZTe8094WA2w8YMd-37" value="&lt;font style=&quot;font-size: 20px;&quot;&gt;T3&lt;/font&gt;" style="ellipse;whiteSpace=wrap;html=1;aspect=fixed;fillColor=#D7E884;strokeColor=#613E20;strokeWidth=2;fontSize=20;" vertex="1" parent="WIyWlLk6GJQsqaUBKTNV-1">
          <mxGeometry x="927.9738562091503" y="862.5441379310345" width="47.46" height="47.46" as="geometry" />
        </mxCell>
        <mxCell id="hVYWCZTe8094WA2w8YMd-38" value="" style="endArrow=classic;html=1;rounded=0;fontFamily=Helvetica;fontSize=12;fontColor=default;entryX=1;entryY=1;entryDx=0;entryDy=0;strokeColor=#613E20;strokeWidth=2;startArrow=classic;startFill=1;" edge="1" parent="WIyWlLk6GJQsqaUBKTNV-1" source="hVYWCZTe8094WA2w8YMd-37" target="hVYWCZTe8094WA2w8YMd-32">
          <mxGeometry width="50" height="50" relative="1" as="geometry">
            <mxPoint x="959.0196078431372" y="832.3717241379311" as="sourcePoint" />
            <mxPoint x="990.0653594771243" y="802.1993103448276" as="targetPoint" />
          </mxGeometry>
        </mxCell>
        <mxCell id="hVYWCZTe8094WA2w8YMd-39" value="" style="endArrow=classic;html=1;rounded=0;strokeColor=#613E20;strokeWidth=2;align=center;verticalAlign=middle;fontFamily=Helvetica;fontSize=12;fontColor=default;labelBackgroundColor=default;entryX=1;entryY=0;entryDx=0;entryDy=0;startArrow=classic;startFill=1;" edge="1" parent="WIyWlLk6GJQsqaUBKTNV-1" source="hVYWCZTe8094WA2w8YMd-34" target="hVYWCZTe8094WA2w8YMd-32">
          <mxGeometry width="50" height="50" relative="1" as="geometry">
            <mxPoint x="959.0196078431372" y="832.3717241379311" as="sourcePoint" />
            <mxPoint x="990.0653594771243" y="802.1993103448276" as="targetPoint" />
          </mxGeometry>
        </mxCell>
        <mxCell id="hVYWCZTe8094WA2w8YMd-40" value="" style="endArrow=classic;html=1;rounded=0;strokeColor=#613E20;strokeWidth=2;align=center;verticalAlign=middle;fontFamily=Helvetica;fontSize=12;fontColor=default;labelBackgroundColor=default;entryX=0.5;entryY=0;entryDx=0;entryDy=0;exitX=0.5;exitY=1;exitDx=0;exitDy=0;startArrow=classic;startFill=1;" edge="1" parent="WIyWlLk6GJQsqaUBKTNV-1" source="hVYWCZTe8094WA2w8YMd-35" target="hVYWCZTe8094WA2w8YMd-32">
          <mxGeometry width="50" height="50" relative="1" as="geometry">
            <mxPoint x="959.0196078431372" y="832.3717241379311" as="sourcePoint" />
            <mxPoint x="990.0653594771243" y="802.1993103448276" as="targetPoint" />
          </mxGeometry>
        </mxCell>
        <mxCell id="hVYWCZTe8094WA2w8YMd-41" value="" style="endArrow=classic;html=1;rounded=0;strokeColor=#613E20;strokeWidth=2;align=center;verticalAlign=middle;fontFamily=Helvetica;fontSize=12;fontColor=default;labelBackgroundColor=default;exitX=1;exitY=0.5;exitDx=0;exitDy=0;entryX=0;entryY=0;entryDx=0;entryDy=0;startArrow=classic;startFill=1;" edge="1" parent="WIyWlLk6GJQsqaUBKTNV-1" source="hVYWCZTe8094WA2w8YMd-36" target="hVYWCZTe8094WA2w8YMd-32">
          <mxGeometry width="50" height="50" relative="1" as="geometry">
            <mxPoint x="959.0196078431372" y="832.3717241379311" as="sourcePoint" />
            <mxPoint x="990.0653594771243" y="802.1993103448276" as="targetPoint" />
          </mxGeometry>
        </mxCell>
        <mxCell id="hVYWCZTe8094WA2w8YMd-42" value="" style="endArrow=classic;html=1;rounded=0;strokeColor=#613E20;strokeWidth=2;align=center;verticalAlign=middle;fontFamily=Helvetica;fontSize=12;fontColor=default;labelBackgroundColor=default;entryX=0;entryY=1;entryDx=0;entryDy=0;exitX=1;exitY=0;exitDx=0;exitDy=0;startArrow=classic;startFill=1;" edge="1" parent="WIyWlLk6GJQsqaUBKTNV-1" source="hVYWCZTe8094WA2w8YMd-33" target="hVYWCZTe8094WA2w8YMd-32">
          <mxGeometry width="50" height="50" relative="1" as="geometry">
            <mxPoint x="959.0196078431372" y="832.3717241379311" as="sourcePoint" />
            <mxPoint x="990.0653594771243" y="802.1993103448276" as="targetPoint" />
          </mxGeometry>
        </mxCell>
        <mxCell id="hVYWCZTe8094WA2w8YMd-43" style="edgeStyle=none;shape=connector;rounded=0;orthogonalLoop=1;jettySize=auto;html=1;entryX=1;entryY=0;entryDx=0;entryDy=0;strokeColor=#613E20;strokeWidth=2;align=center;verticalAlign=middle;fontFamily=Helvetica;fontSize=12;fontColor=default;labelBackgroundColor=default;endArrow=classic;" edge="1" parent="WIyWlLk6GJQsqaUBKTNV-1" source="hVYWCZTe8094WA2w8YMd-44" target="hVYWCZTe8094WA2w8YMd-52">
          <mxGeometry relative="1" as="geometry" />
        </mxCell>
        <mxCell id="hVYWCZTe8094WA2w8YMd-44" value="&lt;font style=&quot;font-size: 20px;&quot;&gt;T2&lt;/font&gt;" style="ellipse;whiteSpace=wrap;html=1;aspect=fixed;fillColor=#D7E884;strokeColor=#613E20;strokeWidth=2;fontSize=20;" vertex="1" parent="WIyWlLk6GJQsqaUBKTNV-1">
          <mxGeometry x="1177.542372881356" y="802.1993103448276" width="47.457540160256244" height="47.457540160256244" as="geometry" />
        </mxCell>
        <mxCell id="hVYWCZTe8094WA2w8YMd-45" style="edgeStyle=none;shape=connector;rounded=0;orthogonalLoop=1;jettySize=auto;html=1;entryX=0.5;entryY=1;entryDx=0;entryDy=0;strokeColor=#613E20;strokeWidth=2;align=center;verticalAlign=middle;fontFamily=Helvetica;fontSize=12;fontColor=default;labelBackgroundColor=default;endArrow=classic;" edge="1" parent="WIyWlLk6GJQsqaUBKTNV-1" source="hVYWCZTe8094WA2w8YMd-46" target="hVYWCZTe8094WA2w8YMd-50">
          <mxGeometry relative="1" as="geometry" />
        </mxCell>
        <mxCell id="hVYWCZTe8094WA2w8YMd-46" value="&lt;font style=&quot;font-size: 20px;&quot;&gt;T3&lt;/font&gt;" style="ellipse;whiteSpace=wrap;html=1;aspect=fixed;fillColor=#D7E884;strokeColor=#613E20;strokeWidth=2;fontSize=20;" vertex="1" parent="WIyWlLk6GJQsqaUBKTNV-1">
          <mxGeometry x="1076.6949152542372" y="862.5441379310346" width="47.457540160256244" height="47.457540160256244" as="geometry" />
        </mxCell>
        <mxCell id="hVYWCZTe8094WA2w8YMd-47" style="edgeStyle=none;shape=connector;rounded=0;orthogonalLoop=1;jettySize=auto;html=1;entryX=0.5;entryY=0;entryDx=0;entryDy=0;strokeColor=#613E20;strokeWidth=2;align=center;verticalAlign=middle;fontFamily=Helvetica;fontSize=12;fontColor=default;labelBackgroundColor=default;endArrow=classic;" edge="1" parent="WIyWlLk6GJQsqaUBKTNV-1" source="hVYWCZTe8094WA2w8YMd-48" target="hVYWCZTe8094WA2w8YMd-44">
          <mxGeometry relative="1" as="geometry" />
        </mxCell>
        <mxCell id="hVYWCZTe8094WA2w8YMd-48" value="&lt;font style=&quot;font-size: 20px;&quot;&gt;T1&lt;/font&gt;" style="ellipse;whiteSpace=wrap;html=1;aspect=fixed;fillColor=#D7E884;strokeColor=#613E20;strokeWidth=2;fontSize=20;" vertex="1" parent="WIyWlLk6GJQsqaUBKTNV-1">
          <mxGeometry x="1149.6610169491526" y="735.82" width="47.457540160256244" height="47.457540160256244" as="geometry" />
        </mxCell>
        <mxCell id="hVYWCZTe8094WA2w8YMd-61" style="edgeStyle=none;shape=connector;rounded=0;orthogonalLoop=1;jettySize=auto;html=1;entryX=1;entryY=1;entryDx=0;entryDy=0;strokeColor=#613E20;strokeWidth=2;align=center;verticalAlign=middle;fontFamily=Helvetica;fontSize=12;fontColor=default;labelBackgroundColor=default;endArrow=classic;startArrow=classic;startFill=1;" edge="1" parent="WIyWlLk6GJQsqaUBKTNV-1" source="hVYWCZTe8094WA2w8YMd-49" target="hVYWCZTe8094WA2w8YMd-58">
          <mxGeometry relative="1" as="geometry" />
        </mxCell>
        <mxCell id="hVYWCZTe8094WA2w8YMd-49" value="&lt;font style=&quot;font-size: 20px;&quot;&gt;HA2&lt;/font&gt;" style="ellipse;whiteSpace=wrap;html=1;aspect=fixed;fillColor=#D7E884;strokeColor=#613E20;strokeWidth=2;fontSize=20;" vertex="1" parent="WIyWlLk6GJQsqaUBKTNV-1">
          <mxGeometry x="1076.6949152542372" y="735.82" width="47.46" height="47.46" as="geometry" />
        </mxCell>
        <mxCell id="hVYWCZTe8094WA2w8YMd-50" value="&lt;span style=&quot;font-size: 20px;&quot;&gt;T4&lt;/span&gt;" style="ellipse;whiteSpace=wrap;html=1;aspect=fixed;fillColor=#D7E884;strokeColor=#613E20;strokeWidth=2;fontSize=20;" vertex="1" parent="WIyWlLk6GJQsqaUBKTNV-1">
          <mxGeometry x="1050" y="802.1993103448276" width="47.457540160256244" height="47.457540160256244" as="geometry" />
        </mxCell>
        <mxCell id="hVYWCZTe8094WA2w8YMd-51" style="edgeStyle=none;shape=connector;rounded=0;orthogonalLoop=1;jettySize=auto;html=1;entryX=1;entryY=0.5;entryDx=0;entryDy=0;strokeColor=#613E20;strokeWidth=2;align=center;verticalAlign=middle;fontFamily=Helvetica;fontSize=12;fontColor=default;labelBackgroundColor=default;endArrow=classic;" edge="1" parent="WIyWlLk6GJQsqaUBKTNV-1" source="hVYWCZTe8094WA2w8YMd-52" target="hVYWCZTe8094WA2w8YMd-46">
          <mxGeometry relative="1" as="geometry" />
        </mxCell>
        <mxCell id="hVYWCZTe8094WA2w8YMd-52" value="A2" style="ellipse;whiteSpace=wrap;html=1;aspect=fixed;fillColor=#D7E884;strokeColor=#613E20;strokeWidth=2;fontSize=20;" vertex="1" parent="WIyWlLk6GJQsqaUBKTNV-1">
          <mxGeometry x="1149.6610169491526" y="862.5441379310346" width="47.457540160256244" height="47.457540160256244" as="geometry" />
        </mxCell>
        <mxCell id="hVYWCZTe8094WA2w8YMd-53" value="" style="endArrow=classic;html=1;rounded=0;strokeColor=#613E20;strokeWidth=2;align=center;verticalAlign=middle;fontFamily=Helvetica;fontSize=12;fontColor=default;labelBackgroundColor=default;exitX=0.5;exitY=0;exitDx=0;exitDy=0;" edge="1" parent="WIyWlLk6GJQsqaUBKTNV-1" source="hVYWCZTe8094WA2w8YMd-50" target="hVYWCZTe8094WA2w8YMd-49">
          <mxGeometry width="50" height="50" relative="1" as="geometry">
            <mxPoint x="1023.3050847457628" y="820.3027586206897" as="sourcePoint" />
            <mxPoint x="1052.9661016949153" y="790.1303448275862" as="targetPoint" />
          </mxGeometry>
        </mxCell>
        <mxCell id="hVYWCZTe8094WA2w8YMd-54" value="" style="endArrow=classic;html=1;rounded=0;strokeColor=#613E20;strokeWidth=2;align=center;verticalAlign=middle;fontFamily=Helvetica;fontSize=12;fontColor=default;labelBackgroundColor=default;entryX=0;entryY=0.5;entryDx=0;entryDy=0;exitX=1;exitY=0.5;exitDx=0;exitDy=0;" edge="1" parent="WIyWlLk6GJQsqaUBKTNV-1" source="hVYWCZTe8094WA2w8YMd-49" target="hVYWCZTe8094WA2w8YMd-48">
          <mxGeometry width="50" height="50" relative="1" as="geometry">
            <mxPoint x="1023.3050847457628" y="820.3027586206897" as="sourcePoint" />
            <mxPoint x="1052.9661016949153" y="790.1303448275862" as="targetPoint" />
          </mxGeometry>
        </mxCell>
        <mxCell id="hVYWCZTe8094WA2w8YMd-62" value="Central Aggregator" style="text;html=1;align=center;verticalAlign=middle;whiteSpace=wrap;rounded=0;fontFamily=Helvetica;fontSize=15;fontColor=default;labelBackgroundColor=default;" vertex="1" parent="WIyWlLk6GJQsqaUBKTNV-1">
          <mxGeometry x="900.0000000000001" y="645" width="60" height="30" as="geometry" />
        </mxCell>
        <mxCell id="hVYWCZTe8094WA2w8YMd-63" value="Star topology" style="text;html=1;align=center;verticalAlign=middle;whiteSpace=wrap;rounded=0;fontFamily=Helvetica;fontSize=28;fontColor=default;labelBackgroundColor=default;" vertex="1" parent="WIyWlLk6GJQsqaUBKTNV-1">
          <mxGeometry x="125" y="930" width="170" height="30" as="geometry" />
        </mxCell>
        <mxCell id="hVYWCZTe8094WA2w8YMd-66" value="Ring topology" style="text;html=1;align=center;verticalAlign=middle;whiteSpace=wrap;rounded=0;fontFamily=Helvetica;fontSize=28;fontColor=default;labelBackgroundColor=default;" vertex="1" parent="WIyWlLk6GJQsqaUBKTNV-1">
          <mxGeometry x="486" y="930" width="190" height="30" as="geometry" />
        </mxCell>
        <mxCell id="hVYWCZTe8094WA2w8YMd-67" value="Hierarchical topology" style="text;html=1;align=center;verticalAlign=middle;whiteSpace=wrap;rounded=0;fontFamily=Helvetica;fontSize=28;fontColor=default;labelBackgroundColor=default;" vertex="1" parent="WIyWlLk6GJQsqaUBKTNV-1">
          <mxGeometry x="851.76" y="930" width="333.52" height="30" as="geometry" />
        </mxCell>
      </root>
    </mxGraphModel>
  </diagram>
</mxfile>
